<svg viewBox="-16 -32 880 192" width="880" height="192" xmlns="http://www.w3.org/2000/svg"><desc>Generated with https://github.com/Platane/snk</desc><style>:root{--cb:#1b1f230a;--cs:purple;--ce:#ebedf0;--c0:#ebedf0;--c1:#9be9a8;--c2:#40c463;--c3:#30a14e;--c4:#216e39}.c{shape-rendering:geometricPrecision;fill:var(--ce);stroke-width:1px;stroke:var(--cb);animation:none 36500ms linear infinite;width:12px;height:12px}@keyframes c0{2.46%{fill:var(--c1)}2.48%,100%{fill:var(--ce)}}.c.c0{fill:var(--c1);animation-name:c0}@keyframes c1{69.85%{fill:var(--c2)}69.87%,100%{fill:var(--ce)}}.c.c1{fill:var(--c2);animation-name:c1}@keyframes c2{3.83%{fill:var(--c1)}3.85%,100%{fill:var(--ce)}}.c.c2{fill:var(--c1);animation-name:c2}@keyframes c3{1.63%{fill:var(--c1)}1.65%,100%{fill:var(--ce)}}.c.c3{fill:var(--c1);animation-name:c3}@keyframes c4{3.28%{fill:var(--c1)}3.3%,100%{fill:var(--ce)}}.c.c4{fill:var(--c1);animation-name:c4}@keyframes c5{7.66%{fill:var(--c1)}7.68%,100%{fill:var(--ce)}}.c.c5{fill:var(--c1);animation-name:c5}@keyframes c6{6.29%{fill:var(--c1)}6.31%,100%{fill:var(--ce)}}.c.c6{fill:var(--c1);animation-name:c6}@keyframes c7{6.02%{fill:var(--c1)}6.04%,100%{fill:var(--ce)}}.c.c7{fill:var(--c1);animation-name:c7}@keyframes c8{7.11%{fill:var(--c1)}7.13%,100%{fill:var(--ce)}}.c.c8{fill:var(--c1);animation-name:c8}@keyframes c9{6.84%{fill:var(--c1)}6.86%,100%{fill:var(--ce)}}.c.c9{fill:var(--c1);animation-name:c9}@keyframes ca{9.03%{fill:var(--c1)}9.05%,100%{fill:var(--ce)}}.c.ca{fill:var(--c1);animation-name:ca}@keyframes cb{14.24%{fill:var(--c1)}14.26%,100%{fill:var(--ce)}}.c.cb{fill:var(--c1);animation-name:cb}@keyframes cc{13.69%{fill:var(--c1)}13.71%,100%{fill:var(--ce)}}.c.cc{fill:var(--c1);animation-name:cc}@keyframes cd{10.4%{fill:var(--c1)}10.42%,100%{fill:var(--ce)}}.c.cd{fill:var(--c1);animation-name:cd}@keyframes ce{10.67%{fill:var(--c1)}10.69%,100%{fill:var(--ce)}}.c.ce{fill:var(--c1);animation-name:ce}@keyframes cf{13.14%{fill:var(--c1)}13.16%,100%{fill:var(--ce)}}.c.cf{fill:var(--c1);animation-name:cf}@keyframes cg{11.22%{fill:var(--c1)}11.24%,100%{fill:var(--ce)}}.c.cg{fill:var(--c1);animation-name:cg}@keyframes ch{11.5%{fill:var(--c1)}11.52%,100%{fill:var(--ce)}}.c.ch{fill:var(--c1);animation-name:ch}@keyframes ci{18.89%{fill:var(--c1)}18.91%,100%{fill:var(--ce)}}.c.ci{fill:var(--c1);animation-name:ci}@keyframes cj{11.77%{fill:var(--c1)}11.79%,100%{fill:var(--ce)}}.c.cj{fill:var(--c1);animation-name:cj}@keyframes ck{12.32%{fill:var(--c1)}12.34%,100%{fill:var(--ce)}}.c.ck{fill:var(--c1);animation-name:ck}@keyframes cl{18.07%{fill:var(--c1)}18.09%,100%{fill:var(--ce)}}.c.cl{fill:var(--c1);animation-name:cl}@keyframes cm{17.8%{fill:var(--c1)}17.82%,100%{fill:var(--ce)}}.c.cm{fill:var(--c1);animation-name:cm}@keyframes cn{17.52%{fill:var(--c1)}17.54%,100%{fill:var(--ce)}}.c.cn{fill:var(--c1);animation-name:cn}@keyframes co{16.7%{fill:var(--c1)}16.72%,100%{fill:var(--ce)}}.c.co{fill:var(--c1);animation-name:co}@keyframes cp{16.98%{fill:var(--c1)}17%,100%{fill:var(--ce)}}.c.cp{fill:var(--c1);animation-name:cp}@keyframes cq{93.41%{fill:var(--c4)}93.43%,100%{fill:var(--ce)}}.c.cq{fill:var(--c4);animation-name:cq}@keyframes cr{20.81%{fill:var(--c1)}20.83%,100%{fill:var(--ce)}}.c.cr{fill:var(--c1);animation-name:cr}@keyframes cs{24.37%{fill:var(--c1)}24.39%,100%{fill:var(--ce)}}.c.cs{fill:var(--c1);animation-name:cs}@keyframes ct{25.2%{fill:var(--c1)}25.22%,100%{fill:var(--ce)}}.c.ct{fill:var(--c1);animation-name:ct}@keyframes cu{22.46%{fill:var(--c1)}22.48%,100%{fill:var(--ce)}}.c.cu{fill:var(--c1);animation-name:cu}@keyframes cv{23.28%{fill:var(--c1)}23.3%,100%{fill:var(--ce)}}.c.cv{fill:var(--c1);animation-name:cv}@keyframes cw{45.74%{fill:var(--c1)}45.76%,100%{fill:var(--ce)}}.c.cw{fill:var(--c1);animation-name:cw}@keyframes cx{28.21%{fill:var(--c1)}28.23%,100%{fill:var(--ce)}}.c.cx{fill:var(--c1);animation-name:cx}@keyframes cy{28.76%{fill:var(--c1)}28.78%,100%{fill:var(--ce)}}.c.cy{fill:var(--c1);animation-name:cy}@keyframes cz{31.22%{fill:var(--c1)}31.24%,100%{fill:var(--ce)}}.c.cz{fill:var(--c1);animation-name:cz}@keyframes c10{58.07%{fill:var(--c2)}58.09%,100%{fill:var(--ce)}}.c.c10{fill:var(--c2);animation-name:c10}@keyframes c11{29.58%{fill:var(--c1)}29.6%,100%{fill:var(--ce)}}.c.c11{fill:var(--c1);animation-name:c11}@keyframes c12{32.32%{fill:var(--c1)}32.34%,100%{fill:var(--ce)}}.c.c12{fill:var(--c1);animation-name:c12}@keyframes c13{32.04%{fill:var(--c1)}32.06%,100%{fill:var(--ce)}}.c.c13{fill:var(--c1);animation-name:c13}@keyframes c14{33.14%{fill:var(--c1)}33.16%,100%{fill:var(--ce)}}.c.c14{fill:var(--c1);animation-name:c14}@keyframes c15{34.24%{fill:var(--c1)}34.26%,100%{fill:var(--ce)}}.c.c15{fill:var(--c1);animation-name:c15}@keyframes c16{34.51%{fill:var(--c1)}34.53%,100%{fill:var(--ce)}}.c.c16{fill:var(--c1);animation-name:c16}@keyframes c17{52.87%{fill:var(--c2)}52.89%,100%{fill:var(--ce)}}.c.c17{fill:var(--c2);animation-name:c17}@keyframes c18{53.14%{fill:var(--c2)}53.16%,100%{fill:var(--ce)}}.c.c18{fill:var(--c2);animation-name:c18}@keyframes c19{36.43%{fill:var(--c1)}36.45%,100%{fill:var(--ce)}}.c.c19{fill:var(--c1);animation-name:c19}@keyframes c1a{55.88%{fill:var(--c2)}55.9%,100%{fill:var(--ce)}}.c.c1a{fill:var(--c2);animation-name:c1a}@keyframes c1b{83.55%{fill:var(--c3)}83.57%,100%{fill:var(--ce)}}.c.c1b{fill:var(--c3);animation-name:c1b}@keyframes c1c{83.83%{fill:var(--c4)}83.85%,100%{fill:var(--ce)}}.c.c1c{fill:var(--c4);animation-name:c1c}@keyframes c1d{82.46%{fill:var(--c3)}82.48%,100%{fill:var(--ce)}}.c.c1d{fill:var(--c3);animation-name:c1d}@keyframes c1e{52.59%{fill:var(--c1)}52.61%,100%{fill:var(--ce)}}.c.c1e{fill:var(--c1);animation-name:c1e}@keyframes c1f{84.65%{fill:var(--c4)}84.67%,100%{fill:var(--ce)}}.c.c1f{fill:var(--c4);animation-name:c1f}@keyframes c1g{36.98%{fill:var(--c1)}37%,100%{fill:var(--ce)}}.c.c1g{fill:var(--c1);animation-name:c1g}@keyframes c1h{55.33%{fill:var(--c2)}55.35%,100%{fill:var(--ce)}}.c.c1h{fill:var(--c2);animation-name:c1h}@keyframes c1i{39.44%{fill:var(--c1)}39.46%,100%{fill:var(--ce)}}.c.c1i{fill:var(--c1);animation-name:c1i}@keyframes c1j{38.07%{fill:var(--c1)}38.09%,100%{fill:var(--ce)}}.c.c1j{fill:var(--c1);animation-name:c1j}@keyframes c1k{38.89%{fill:var(--c1)}38.91%,100%{fill:var(--ce)}}.c.c1k{fill:var(--c1);animation-name:c1k}@keyframes c1l{38.35%{fill:var(--c1)}38.37%,100%{fill:var(--ce)}}.c.c1l{fill:var(--c1);animation-name:c1l}.u{transform-origin:0 0;transform:scale(0,1);animation:none linear 36500ms infinite}@keyframes u0{1.63%{transform:scale(0.000,1)}1.65%,2.46%{transform:scale(0.021,1)}2.48%,3.28%{transform:scale(0.043,1)}3.3%,3.83%{transform:scale(0.064,1)}3.85%,6.02%{transform:scale(0.085,1)}6.04%,6.29%{transform:scale(0.106,1)}6.31%,6.84%{transform:scale(0.128,1)}6.86%,7.11%{transform:scale(0.149,1)}7.13%,7.66%{transform:scale(0.170,1)}7.68%,9.03%{transform:scale(0.191,1)}9.05%,10.4%{transform:scale(0.213,1)}10.42%,10.67%{transform:scale(0.234,1)}10.69%,11.22%{transform:scale(0.255,1)}11.24%,11.5%{transform:scale(0.277,1)}11.52%,11.77%{transform:scale(0.298,1)}11.79%,12.32%{transform:scale(0.319,1)}12.34%,13.14%{transform:scale(0.340,1)}13.16%,13.69%{transform:scale(0.362,1)}13.71%,14.24%{transform:scale(0.383,1)}14.26%,16.7%{transform:scale(0.404,1)}16.72%,16.98%{transform:scale(0.426,1)}17%,17.52%{transform:scale(0.447,1)}17.54%,17.8%{transform:scale(0.468,1)}17.82%,18.07%{transform:scale(0.489,1)}18.09%,18.89%{transform:scale(0.511,1)}18.91%,20.81%{transform:scale(0.532,1)}20.83%,22.46%{transform:scale(0.553,1)}22.48%,23.28%{transform:scale(0.574,1)}23.3%,24.37%{transform:scale(0.596,1)}24.39%,25.2%{transform:scale(0.617,1)}25.22%,28.21%{transform:scale(0.638,1)}28.23%,28.76%{transform:scale(0.660,1)}28.78%,29.58%{transform:scale(0.681,1)}29.6%,31.22%{transform:scale(0.702,1)}31.24%,32.04%{transform:scale(0.723,1)}32.06%,32.32%{transform:scale(0.745,1)}32.34%,33.14%{transform:scale(0.766,1)}33.16%,34.24%{transform:scale(0.787,1)}34.26%,34.51%{transform:scale(0.809,1)}34.53%,36.43%{transform:scale(0.830,1)}36.45%,36.98%{transform:scale(0.851,1)}37%,38.07%{transform:scale(0.872,1)}38.09%,38.35%{transform:scale(0.894,1)}38.37%,38.89%{transform:scale(0.915,1)}38.91%,39.44%{transform:scale(0.936,1)}39.46%,45.74%{transform:scale(0.957,1)}45.76%,52.59%{transform:scale(0.979,1)}52.61%,100%{transform:scale(1.000,1)}}.u.u0{fill:var(--c1);animation-name:u0;transform-origin:0.0px 0}@keyframes u1{52.87%{transform:scale(0.000,1)}52.89%,53.14%{transform:scale(0.167,1)}53.16%,55.33%{transform:scale(0.333,1)}55.35%,55.88%{transform:scale(0.500,1)}55.9%,58.07%{transform:scale(0.667,1)}58.09%,69.85%{transform:scale(0.833,1)}69.87%,100%{transform:scale(1.000,1)}}.u.u1{fill:var(--c2);animation-name:u1;transform-origin:687.2px 0}@keyframes u2{82.46%{transform:scale(0.000,1)}82.48%,83.55%{transform:scale(0.500,1)}83.57%,100%{transform:scale(1.000,1)}}.u.u2{fill:var(--c3);animation-name:u2;transform-origin:774.9px 0}@keyframes u3{83.83%{transform:scale(0.000,1)}83.85%,84.65%{transform:scale(0.333,1)}84.67%,93.41%{transform:scale(0.667,1)}93.43%,100%{transform:scale(1.000,1)}}.u.u3{fill:var(--c4);animation-name:u3;transform-origin:804.1px 0}.s{shape-rendering:geometricPrecision;fill:var(--cs);animation:none linear 36500ms infinite}@keyframes s0{0%,99.73%{transform:translate(0px,-16px)}0.27%{transform:translate(0px,0px)}1.37%,98.36%{transform:translate(64px,0px)}1.64%{transform:translate(64px,16px)}1.92%,68.77%{transform:translate(48px,16px)}2.47%{transform:translate(48px,48px)}2.74%{transform:translate(64px,48px)}3.56%{transform:translate(64px,96px)}4.11%{transform:translate(32px,96px)}4.66%{transform:translate(32px,64px)}6.03%{transform:translate(112px,64px)}6.3%{transform:translate(112px,48px)}6.58%{transform:translate(128px,48px)}7.4%{transform:translate(128px,0px)}7.67%{transform:translate(112px,0px)}7.95%{transform:translate(112px,-16px)}8.77%{transform:translate(160px,-16px)}9.04%{transform:translate(160px,0px)}9.86%{transform:translate(208px,0px)}10.68%{transform:translate(208px,48px)}10.96%{transform:translate(224px,48px)}11.51%{transform:translate(224px,80px)}12.05%{transform:translate(256px,80px)}12.33%{transform:translate(256px,96px)}13.15%{transform:translate(208px,96px)}13.42%{transform:translate(208px,80px)}13.97%{transform:translate(176px,80px)}14.25%{transform:translate(176px,96px)}15.89%{transform:translate(272px,96px)}16.71%{transform:translate(272px,48px)}16.99%{transform:translate(288px,48px)}17.26%{transform:translate(288px,32px)}17.53%{transform:translate(272px,32px)}18.08%{transform:translate(272px,0px)}18.63%{transform:translate(240px,0px)}18.9%{transform:translate(240px,16px)}22.74%{transform:translate(464px,16px)}23.29%{transform:translate(464px,48px)}24.11%{transform:translate(416px,48px)}24.38%{transform:translate(416px,64px)}24.66%{transform:translate(432px,64px)}25.21%{transform:translate(432px,96px)}28.49%{transform:translate(624px,96px)}28.77%{transform:translate(624px,80px)}29.32%{transform:translate(656px,80px)}29.59%{transform:translate(656px,96px)}29.86%{transform:translate(640px,96px)}31.23%{transform:translate(640px,16px)}32.05%{transform:translate(688px,16px)}32.33%{transform:translate(688px,0px)}32.6%{transform:translate(704px,0px)}33.15%{transform:translate(704px,32px)}33.97%{transform:translate(752px,32px)}34.52%{transform:translate(752px,64px)}34.79%{transform:translate(736px,64px)}35.07%{transform:translate(736px,48px)}35.34%{transform:translate(752px,48px)}36.16%,86.58%{transform:translate(752px,0px)}36.71%{transform:translate(784px,0px)}36.99%,55.62%{transform:translate(784px,16px)}37.53%{transform:translate(816px,16px)}38.08%{transform:translate(816px,48px)}38.36%{transform:translate(832px,48px)}38.63%{transform:translate(832px,64px)}39.45%,82.74%{transform:translate(784px,64px)}39.73%{transform:translate(784px,48px)}40%{transform:translate(800px,48px)}40.82%{transform:translate(800px,0px)}43.01%{transform:translate(672px,0px)}43.29%{transform:translate(672px,16px)}45.75%{transform:translate(528px,16px)}46.58%{transform:translate(528px,64px)}49.86%{transform:translate(720px,64px)}50.68%{transform:translate(720px,112px)}51.78%{transform:translate(784px,112px)}52.33%,54.52%{transform:translate(784px,80px)}52.88%{transform:translate(752px,80px)}53.15%,84.93%{transform:translate(752px,96px)}53.42%{transform:translate(736px,96px)}53.7%{transform:translate(736px,80px)}55.89%{transform:translate(768px,16px)}56.16%{transform:translate(768px,0px)}63.01%{transform:translate(368px,0px)}63.29%{transform:translate(368px,16px)}69.86%{transform:translate(48px,80px)}82.19%{transform:translate(768px,80px)}82.47%{transform:translate(768px,64px)}83.29%{transform:translate(784px,32px)}83.56%{transform:translate(768px,32px)}84.66%{transform:translate(768px,96px)}98.63%{transform:translate(64px,-16px)}}.s.s0{transform:translate(0px,-16px);animation-name:s0}@keyframes s1{0%,99.73%{transform:translate(16px,-16px)}0.27%{transform:translate(0px,-16px)}0.55%{transform:translate(0px,0px)}1.64%,98.63%{transform:translate(64px,0px)}1.92%{transform:translate(64px,16px)}2.19%,69.04%{transform:translate(48px,16px)}2.74%{transform:translate(48px,48px)}3.01%{transform:translate(64px,48px)}3.84%{transform:translate(64px,96px)}4.38%{transform:translate(32px,96px)}4.93%{transform:translate(32px,64px)}6.3%{transform:translate(112px,64px)}6.58%{transform:translate(112px,48px)}6.85%{transform:translate(128px,48px)}7.67%{transform:translate(128px,0px)}7.95%{transform:translate(112px,0px)}8.22%{transform:translate(112px,-16px)}9.04%{transform:translate(160px,-16px)}9.32%{transform:translate(160px,0px)}10.14%{transform:translate(208px,0px)}10.96%{transform:translate(208px,48px)}11.23%{transform:translate(224px,48px)}11.78%{transform:translate(224px,80px)}12.33%{transform:translate(256px,80px)}12.6%{transform:translate(256px,96px)}13.42%{transform:translate(208px,96px)}13.7%{transform:translate(208px,80px)}14.25%{transform:translate(176px,80px)}14.52%{transform:translate(176px,96px)}16.16%{transform:translate(272px,96px)}16.99%{transform:translate(272px,48px)}17.26%{transform:translate(288px,48px)}17.53%{transform:translate(288px,32px)}17.81%{transform:translate(272px,32px)}18.36%{transform:translate(272px,0px)}18.9%{transform:translate(240px,0px)}19.18%{transform:translate(240px,16px)}23.01%{transform:translate(464px,16px)}23.56%{transform:translate(464px,48px)}24.38%{transform:translate(416px,48px)}24.66%{transform:translate(416px,64px)}24.93%{transform:translate(432px,64px)}25.48%{transform:translate(432px,96px)}28.77%{transform:translate(624px,96px)}29.04%{transform:translate(624px,80px)}29.59%{transform:translate(656px,80px)}29.86%{transform:translate(656px,96px)}30.14%{transform:translate(640px,96px)}31.51%{transform:translate(640px,16px)}32.33%{transform:translate(688px,16px)}32.6%{transform:translate(688px,0px)}32.88%{transform:translate(704px,0px)}33.42%{transform:translate(704px,32px)}34.25%{transform:translate(752px,32px)}34.79%{transform:translate(752px,64px)}35.07%{transform:translate(736px,64px)}35.34%{transform:translate(736px,48px)}35.62%{transform:translate(752px,48px)}36.44%,86.85%{transform:translate(752px,0px)}36.99%{transform:translate(784px,0px)}37.26%,55.89%{transform:translate(784px,16px)}37.81%{transform:translate(816px,16px)}38.36%{transform:translate(816px,48px)}38.63%{transform:translate(832px,48px)}38.9%{transform:translate(832px,64px)}39.73%,83.01%{transform:translate(784px,64px)}40%{transform:translate(784px,48px)}40.27%{transform:translate(800px,48px)}41.1%{transform:translate(800px,0px)}43.29%{transform:translate(672px,0px)}43.56%{transform:translate(672px,16px)}46.03%{transform:translate(528px,16px)}46.85%{transform:translate(528px,64px)}50.14%{transform:translate(720px,64px)}50.96%{transform:translate(720px,112px)}52.05%{transform:translate(784px,112px)}52.6%,54.79%{transform:translate(784px,80px)}53.15%{transform:translate(752px,80px)}53.42%,85.21%{transform:translate(752px,96px)}53.7%{transform:translate(736px,96px)}53.97%{transform:translate(736px,80px)}56.16%{transform:translate(768px,16px)}56.44%{transform:translate(768px,0px)}63.29%{transform:translate(368px,0px)}63.56%{transform:translate(368px,16px)}70.14%{transform:translate(48px,80px)}82.47%{transform:translate(768px,80px)}82.74%{transform:translate(768px,64px)}83.56%{transform:translate(784px,32px)}83.84%{transform:translate(768px,32px)}84.93%{transform:translate(768px,96px)}98.9%{transform:translate(64px,-16px)}}.s.s1{transform:translate(16px,-16px);animation-name:s1}@keyframes s2{0%,99.73%{transform:translate(32px,-16px)}0.55%{transform:translate(0px,-16px)}0.82%{transform:translate(0px,0px)}1.92%,98.9%{transform:translate(64px,0px)}2.19%{transform:translate(64px,16px)}2.47%,69.32%{transform:translate(48px,16px)}3.01%{transform:translate(48px,48px)}3.29%{transform:translate(64px,48px)}4.11%{transform:translate(64px,96px)}4.66%{transform:translate(32px,96px)}5.21%{transform:translate(32px,64px)}6.58%{transform:translate(112px,64px)}6.85%{transform:translate(112px,48px)}7.12%{transform:translate(128px,48px)}7.95%{transform:translate(128px,0px)}8.22%{transform:translate(112px,0px)}8.49%{transform:translate(112px,-16px)}9.32%{transform:translate(160px,-16px)}9.59%{transform:translate(160px,0px)}10.41%{transform:translate(208px,0px)}11.23%{transform:translate(208px,48px)}11.51%{transform:translate(224px,48px)}12.05%{transform:translate(224px,80px)}12.6%{transform:translate(256px,80px)}12.88%{transform:translate(256px,96px)}13.7%{transform:translate(208px,96px)}13.97%{transform:translate(208px,80px)}14.52%{transform:translate(176px,80px)}14.79%{transform:translate(176px,96px)}16.44%{transform:translate(272px,96px)}17.26%{transform:translate(272px,48px)}17.53%{transform:translate(288px,48px)}17.81%{transform:translate(288px,32px)}18.08%{transform:translate(272px,32px)}18.63%{transform:translate(272px,0px)}19.18%{transform:translate(240px,0px)}19.45%{transform:translate(240px,16px)}23.29%{transform:translate(464px,16px)}23.84%{transform:translate(464px,48px)}24.66%{transform:translate(416px,48px)}24.93%{transform:translate(416px,64px)}25.21%{transform:translate(432px,64px)}25.75%{transform:translate(432px,96px)}29.04%{transform:translate(624px,96px)}29.32%{transform:translate(624px,80px)}29.86%{transform:translate(656px,80px)}30.14%{transform:translate(656px,96px)}30.41%{transform:translate(640px,96px)}31.78%{transform:translate(640px,16px)}32.6%{transform:translate(688px,16px)}32.88%{transform:translate(688px,0px)}33.15%{transform:translate(704px,0px)}33.7%{transform:translate(704px,32px)}34.52%{transform:translate(752px,32px)}35.07%{transform:translate(752px,64px)}35.34%{transform:translate(736px,64px)}35.62%{transform:translate(736px,48px)}35.89%{transform:translate(752px,48px)}36.71%,87.12%{transform:translate(752px,0px)}37.26%{transform:translate(784px,0px)}37.53%,56.16%{transform:translate(784px,16px)}38.08%{transform:translate(816px,16px)}38.63%{transform:translate(816px,48px)}38.9%{transform:translate(832px,48px)}39.18%{transform:translate(832px,64px)}40%,83.29%{transform:translate(784px,64px)}40.27%{transform:translate(784px,48px)}40.55%{transform:translate(800px,48px)}41.37%{transform:translate(800px,0px)}43.56%{transform:translate(672px,0px)}43.84%{transform:translate(672px,16px)}46.3%{transform:translate(528px,16px)}47.12%{transform:translate(528px,64px)}50.41%{transform:translate(720px,64px)}51.23%{transform:translate(720px,112px)}52.33%{transform:translate(784px,112px)}52.88%,55.07%{transform:translate(784px,80px)}53.42%{transform:translate(752px,80px)}53.7%,85.48%{transform:translate(752px,96px)}53.97%{transform:translate(736px,96px)}54.25%{transform:translate(736px,80px)}56.44%{transform:translate(768px,16px)}56.71%{transform:translate(768px,0px)}63.56%{transform:translate(368px,0px)}63.84%{transform:translate(368px,16px)}70.41%{transform:translate(48px,80px)}82.74%{transform:translate(768px,80px)}83.01%{transform:translate(768px,64px)}83.84%{transform:translate(784px,32px)}84.11%{transform:translate(768px,32px)}85.21%{transform:translate(768px,96px)}99.18%{transform:translate(64px,-16px)}}.s.s2{transform:translate(32px,-16px);animation-name:s2}@keyframes s3{0%,99.73%{transform:translate(48px,-16px)}0.82%{transform:translate(0px,-16px)}1.1%{transform:translate(0px,0px)}2.19%,99.18%{transform:translate(64px,0px)}2.47%{transform:translate(64px,16px)}2.74%,69.59%{transform:translate(48px,16px)}3.29%{transform:translate(48px,48px)}3.56%{transform:translate(64px,48px)}4.38%{transform:translate(64px,96px)}4.93%{transform:translate(32px,96px)}5.48%{transform:translate(32px,64px)}6.85%{transform:translate(112px,64px)}7.12%{transform:translate(112px,48px)}7.4%{transform:translate(128px,48px)}8.22%{transform:translate(128px,0px)}8.49%{transform:translate(112px,0px)}8.77%{transform:translate(112px,-16px)}9.59%{transform:translate(160px,-16px)}9.86%{transform:translate(160px,0px)}10.68%{transform:translate(208px,0px)}11.51%{transform:translate(208px,48px)}11.78%{transform:translate(224px,48px)}12.33%{transform:translate(224px,80px)}12.88%{transform:translate(256px,80px)}13.15%{transform:translate(256px,96px)}13.97%{transform:translate(208px,96px)}14.25%{transform:translate(208px,80px)}14.79%{transform:translate(176px,80px)}15.07%{transform:translate(176px,96px)}16.71%{transform:translate(272px,96px)}17.53%{transform:translate(272px,48px)}17.81%{transform:translate(288px,48px)}18.08%{transform:translate(288px,32px)}18.36%{transform:translate(272px,32px)}18.9%{transform:translate(272px,0px)}19.45%{transform:translate(240px,0px)}19.73%{transform:translate(240px,16px)}23.56%{transform:translate(464px,16px)}24.11%{transform:translate(464px,48px)}24.93%{transform:translate(416px,48px)}25.21%{transform:translate(416px,64px)}25.48%{transform:translate(432px,64px)}26.03%{transform:translate(432px,96px)}29.32%{transform:translate(624px,96px)}29.59%{transform:translate(624px,80px)}30.14%{transform:translate(656px,80px)}30.41%{transform:translate(656px,96px)}30.68%{transform:translate(640px,96px)}32.05%{transform:translate(640px,16px)}32.88%{transform:translate(688px,16px)}33.15%{transform:translate(688px,0px)}33.42%{transform:translate(704px,0px)}33.97%{transform:translate(704px,32px)}34.79%{transform:translate(752px,32px)}35.34%{transform:translate(752px,64px)}35.62%{transform:translate(736px,64px)}35.89%{transform:translate(736px,48px)}36.16%{transform:translate(752px,48px)}36.99%,87.4%{transform:translate(752px,0px)}37.53%{transform:translate(784px,0px)}37.81%,56.44%{transform:translate(784px,16px)}38.36%{transform:translate(816px,16px)}38.9%{transform:translate(816px,48px)}39.18%{transform:translate(832px,48px)}39.45%{transform:translate(832px,64px)}40.27%,83.56%{transform:translate(784px,64px)}40.55%{transform:translate(784px,48px)}40.82%{transform:translate(800px,48px)}41.64%{transform:translate(800px,0px)}43.84%{transform:translate(672px,0px)}44.11%{transform:translate(672px,16px)}46.58%{transform:translate(528px,16px)}47.4%{transform:translate(528px,64px)}50.68%{transform:translate(720px,64px)}51.51%{transform:translate(720px,112px)}52.6%{transform:translate(784px,112px)}53.15%,55.34%{transform:translate(784px,80px)}53.7%{transform:translate(752px,80px)}53.97%,85.75%{transform:translate(752px,96px)}54.25%{transform:translate(736px,96px)}54.52%{transform:translate(736px,80px)}56.71%{transform:translate(768px,16px)}56.99%{transform:translate(768px,0px)}63.84%{transform:translate(368px,0px)}64.11%{transform:translate(368px,16px)}70.68%{transform:translate(48px,80px)}83.01%{transform:translate(768px,80px)}83.29%{transform:translate(768px,64px)}84.11%{transform:translate(784px,32px)}84.38%{transform:translate(768px,32px)}85.48%{transform:translate(768px,96px)}99.45%{transform:translate(64px,-16px)}}.s.s3{transform:translate(48px,-16px);animation-name:s3}</style><rect class="c" x="2" y="2" rx="2" ry="2"/><rect class="c" x="2" y="18" rx="2" ry="2"/><rect class="c" x="2" y="34" rx="2" ry="2"/><rect class="c" x="2" y="50" rx="2" ry="2"/><rect class="c" x="2" y="66" rx="2" ry="2"/><rect class="c" x="2" y="82" rx="2" ry="2"/><rect class="c" x="2" y="98" rx="2" ry="2"/><rect class="c" x="18" y="2" rx="2" ry="2"/><rect class="c" x="18" y="18" rx="2" ry="2"/><rect class="c" x="18" y="34" rx="2" ry="2"/><rect class="c" x="18" y="50" rx="2" ry="2"/><rect class="c" x="18" y="66" rx="2" ry="2"/><rect class="c" x="18" y="82" rx="2" ry="2"/><rect class="c" x="18" y="98" rx="2" ry="2"/><rect class="c" x="34" y="2" rx="2" ry="2"/><rect class="c" x="34" y="18" rx="2" ry="2"/><rect class="c" x="34" y="34" rx="2" ry="2"/><rect class="c" x="34" y="50" rx="2" ry="2"/><rect class="c" x="34" y="66" rx="2" ry="2"/><rect class="c" x="34" y="82" rx="2" ry="2"/><rect class="c" x="34" y="98" rx="2" ry="2"/><rect class="c" x="50" y="2" rx="2" ry="2"/><rect class="c" x="50" y="18" rx="2" ry="2"/><rect class="c" x="50" y="34" rx="2" ry="2"/><rect class="c c0" x="50" y="50" rx="2" ry="2"/><rect class="c" x="50" y="66" rx="2" ry="2"/><rect class="c c1" x="50" y="82" rx="2" ry="2"/><rect class="c c2" x="50" y="98" rx="2" ry="2"/><rect class="c" x="66" y="2" rx="2" ry="2"/><rect class="c c3" x="66" y="18" rx="2" ry="2"/><rect class="c" x="66" y="34" rx="2" ry="2"/><rect class="c" x="66" y="50" rx="2" ry="2"/><rect class="c" x="66" y="66" rx="2" ry="2"/><rect class="c c4" x="66" y="82" rx="2" ry="2"/><rect class="c" x="66" y="98" rx="2" ry="2"/><rect class="c" x="82" y="2" rx="2" ry="2"/><rect class="c" x="82" y="18" rx="2" ry="2"/><rect class="c" x="82" y="34" rx="2" ry="2"/><rect class="c" x="82" y="50" rx="2" ry="2"/><rect class="c" x="82" y="66" rx="2" ry="2"/><rect class="c" x="82" y="82" rx="2" ry="2"/><rect class="c" x="82" y="98" rx="2" ry="2"/><rect class="c" x="98" y="2" rx="2" ry="2"/><rect class="c" x="98" y="18" rx="2" ry="2"/><rect class="c" x="98" y="34" rx="2" ry="2"/><rect class="c" x="98" y="50" rx="2" ry="2"/><rect class="c" x="98" y="66" rx="2" ry="2"/><rect class="c" x="98" y="82" rx="2" ry="2"/><rect class="c" x="98" y="98" rx="2" ry="2"/><rect class="c c5" x="114" y="2" rx="2" ry="2"/><rect class="c" x="114" y="18" rx="2" ry="2"/><rect class="c" x="114" y="34" rx="2" ry="2"/><rect class="c c6" x="114" y="50" rx="2" ry="2"/><rect class="c c7" x="114" y="66" rx="2" ry="2"/><rect class="c" x="114" y="82" rx="2" ry="2"/><rect class="c" x="114" y="98" rx="2" ry="2"/><rect class="c" x="130" y="2" rx="2" ry="2"/><rect class="c c8" x="130" y="18" rx="2" ry="2"/><rect class="c c9" x="130" y="34" rx="2" ry="2"/><rect class="c" x="130" y="50" rx="2" ry="2"/><rect class="c" x="130" y="66" rx="2" ry="2"/><rect class="c" x="130" y="82" rx="2" ry="2"/><rect class="c" x="130" y="98" rx="2" ry="2"/><rect class="c" x="146" y="2" rx="2" ry="2"/><rect class="c" x="146" y="18" rx="2" ry="2"/><rect class="c" x="146" y="34" rx="2" ry="2"/><rect class="c" x="146" y="50" rx="2" ry="2"/><rect class="c" x="146" y="66" rx="2" ry="2"/><rect class="c" x="146" y="82" rx="2" ry="2"/><rect class="c" x="146" y="98" rx="2" ry="2"/><rect class="c ca" x="162" y="2" rx="2" ry="2"/><rect class="c" x="162" y="18" rx="2" ry="2"/><rect class="c" x="162" y="34" rx="2" ry="2"/><rect class="c" x="162" y="50" rx="2" ry="2"/><rect class="c" x="162" y="66" rx="2" ry="2"/><rect class="c" x="162" y="82" rx="2" ry="2"/><rect class="c" x="162" y="98" rx="2" ry="2"/><rect class="c" x="178" y="2" rx="2" ry="2"/><rect class="c" x="178" y="18" rx="2" ry="2"/><rect class="c" x="178" y="34" rx="2" ry="2"/><rect class="c" x="178" y="50" rx="2" ry="2"/><rect class="c" x="178" y="66" rx="2" ry="2"/><rect class="c" x="178" y="82" rx="2" ry="2"/><rect class="c cb" x="178" y="98" rx="2" ry="2"/><rect class="c" x="194" y="2" rx="2" ry="2"/><rect class="c" x="194" y="18" rx="2" ry="2"/><rect class="c" x="194" y="34" rx="2" ry="2"/><rect class="c" x="194" y="50" rx="2" ry="2"/><rect class="c" x="194" y="66" rx="2" ry="2"/><rect class="c cc" x="194" y="82" rx="2" ry="2"/><rect class="c" x="194" y="98" rx="2" ry="2"/><rect class="c" x="210" y="2" rx="2" ry="2"/><rect class="c" x="210" y="18" rx="2" ry="2"/><rect class="c cd" x="210" y="34" rx="2" ry="2"/><rect class="c ce" x="210" y="50" rx="2" ry="2"/><rect class="c" x="210" y="66" rx="2" ry="2"/><rect class="c" x="210" y="82" rx="2" ry="2"/><rect class="c cf" x="210" y="98" rx="2" ry="2"/><rect class="c" x="226" y="2" rx="2" ry="2"/><rect class="c" x="226" y="18" rx="2" ry="2"/><rect class="c" x="226" y="34" rx="2" ry="2"/><rect class="c" x="226" y="50" rx="2" ry="2"/><rect class="c cg" x="226" y="66" rx="2" ry="2"/><rect class="c ch" x="226" y="82" rx="2" ry="2"/><rect class="c" x="226" y="98" rx="2" ry="2"/><rect class="c" x="242" y="2" rx="2" ry="2"/><rect class="c ci" x="242" y="18" rx="2" ry="2"/><rect class="c" x="242" y="34" rx="2" ry="2"/><rect class="c" x="242" y="50" rx="2" ry="2"/><rect class="c" x="242" y="66" rx="2" ry="2"/><rect class="c cj" x="242" y="82" rx="2" ry="2"/><rect class="c" x="242" y="98" rx="2" ry="2"/><rect class="c" x="258" y="2" rx="2" ry="2"/><rect class="c" x="258" y="18" rx="2" ry="2"/><rect class="c" x="258" y="34" rx="2" ry="2"/><rect class="c" x="258" y="50" rx="2" ry="2"/><rect class="c" x="258" y="66" rx="2" ry="2"/><rect class="c" x="258" y="82" rx="2" ry="2"/><rect class="c ck" x="258" y="98" rx="2" ry="2"/><rect class="c cl" x="274" y="2" rx="2" ry="2"/><rect class="c cm" x="274" y="18" rx="2" ry="2"/><rect class="c cn" x="274" y="34" rx="2" ry="2"/><rect class="c co" x="274" y="50" rx="2" ry="2"/><rect class="c" x="274" y="66" rx="2" ry="2"/><rect class="c" x="274" y="82" rx="2" ry="2"/><rect class="c" x="274" y="98" rx="2" ry="2"/><rect class="c" x="290" y="2" rx="2" ry="2"/><rect class="c" x="290" y="18" rx="2" ry="2"/><rect class="c" x="290" y="34" rx="2" ry="2"/><rect class="c cp" x="290" y="50" rx="2" ry="2"/><rect class="c" x="290" y="66" rx="2" ry="2"/><rect class="c" x="290" y="82" rx="2" ry="2"/><rect class="c" x="290" y="98" rx="2" ry="2"/><rect class="c" x="306" y="2" rx="2" ry="2"/><rect class="c" x="306" y="18" rx="2" ry="2"/><rect class="c" x="306" y="34" rx="2" ry="2"/><rect class="c" x="306" y="50" rx="2" ry="2"/><rect class="c" x="306" y="66" rx="2" ry="2"/><rect class="c" x="306" y="82" rx="2" ry="2"/><rect class="c" x="306" y="98" rx="2" ry="2"/><rect class="c" x="322" y="2" rx="2" ry="2"/><rect class="c" x="322" y="18" rx="2" ry="2"/><rect class="c" x="322" y="34" rx="2" ry="2"/><rect class="c" x="322" y="50" rx="2" ry="2"/><rect class="c" x="322" y="66" rx="2" ry="2"/><rect class="c" x="322" y="82" rx="2" ry="2"/><rect class="c" x="322" y="98" rx="2" ry="2"/><rect class="c" x="338" y="2" rx="2" ry="2"/><rect class="c" x="338" y="18" rx="2" ry="2"/><rect class="c" x="338" y="34" rx="2" ry="2"/><rect class="c" x="338" y="50" rx="2" ry="2"/><rect class="c" x="338" y="66" rx="2" ry="2"/><rect class="c" x="338" y="82" rx="2" ry="2"/><rect class="c" x="338" y="98" rx="2" ry="2"/><rect class="c cq" x="354" y="2" rx="2" ry="2"/><rect class="c cr" x="354" y="18" rx="2" ry="2"/><rect class="c" x="354" y="34" rx="2" ry="2"/><rect class="c" x="354" y="50" rx="2" ry="2"/><rect class="c" x="354" y="66" rx="2" ry="2"/><rect class="c" x="354" y="82" rx="2" ry="2"/><rect class="c" x="354" y="98" rx="2" ry="2"/><rect class="c" x="370" y="2" rx="2" ry="2"/><rect class="c" x="370" y="18" rx="2" ry="2"/><rect class="c" x="370" y="34" rx="2" ry="2"/><rect class="c" x="370" y="50" rx="2" ry="2"/><rect class="c" x="370" y="66" rx="2" ry="2"/><rect class="c" x="370" y="82" rx="2" ry="2"/><rect class="c" x="370" y="98" rx="2" ry="2"/><rect class="c" x="386" y="2" rx="2" ry="2"/><rect class="c" x="386" y="18" rx="2" ry="2"/><rect class="c" x="386" y="34" rx="2" ry="2"/><rect class="c" x="386" y="50" rx="2" ry="2"/><rect class="c" x="386" y="66" rx="2" ry="2"/><rect class="c" x="386" y="82" rx="2" ry="2"/><rect class="c" x="386" y="98" rx="2" ry="2"/><rect class="c" x="402" y="2" rx="2" ry="2"/><rect class="c" x="402" y="18" rx="2" ry="2"/><rect class="c" x="402" y="34" rx="2" ry="2"/><rect class="c" x="402" y="50" rx="2" ry="2"/><rect class="c" x="402" y="66" rx="2" ry="2"/><rect class="c" x="402" y="82" rx="2" ry="2"/><rect class="c" x="402" y="98" rx="2" ry="2"/><rect class="c" x="418" y="2" rx="2" ry="2"/><rect class="c" x="418" y="18" rx="2" ry="2"/><rect class="c" x="418" y="34" rx="2" ry="2"/><rect class="c" x="418" y="50" rx="2" ry="2"/><rect class="c cs" x="418" y="66" rx="2" ry="2"/><rect class="c" x="418" y="82" rx="2" ry="2"/><rect class="c" x="418" y="98" rx="2" ry="2"/><rect class="c" x="434" y="2" rx="2" ry="2"/><rect class="c" x="434" y="18" rx="2" ry="2"/><rect class="c" x="434" y="34" rx="2" ry="2"/><rect class="c" x="434" y="50" rx="2" ry="2"/><rect class="c" x="434" y="66" rx="2" ry="2"/><rect class="c" x="434" y="82" rx="2" ry="2"/><rect class="c ct" x="434" y="98" rx="2" ry="2"/><rect class="c" x="450" y="2" rx="2" ry="2"/><rect class="c cu" x="450" y="18" rx="2" ry="2"/><rect class="c" x="450" y="34" rx="2" ry="2"/><rect class="c" x="450" y="50" rx="2" ry="2"/><rect class="c" x="450" y="66" rx="2" ry="2"/><rect class="c" x="450" y="82" rx="2" ry="2"/><rect class="c" x="450" y="98" rx="2" ry="2"/><rect class="c" x="466" y="2" rx="2" ry="2"/><rect class="c" x="466" y="18" rx="2" ry="2"/><rect class="c" x="466" y="34" rx="2" ry="2"/><rect class="c cv" x="466" y="50" rx="2" ry="2"/><rect class="c" x="466" y="66" rx="2" ry="2"/><rect class="c" x="466" y="82" rx="2" ry="2"/><rect class="c" x="466" y="98" rx="2" ry="2"/><rect class="c" x="482" y="2" rx="2" ry="2"/><rect class="c" x="482" y="18" rx="2" ry="2"/><rect class="c" x="482" y="34" rx="2" ry="2"/><rect class="c" x="482" y="50" rx="2" ry="2"/><rect class="c" x="482" y="66" rx="2" ry="2"/><rect class="c" x="482" y="82" rx="2" ry="2"/><rect class="c" x="482" y="98" rx="2" ry="2"/><rect class="c" x="498" y="2" rx="2" ry="2"/><rect class="c" x="498" y="18" rx="2" ry="2"/><rect class="c" x="498" y="34" rx="2" ry="2"/><rect class="c" x="498" y="50" rx="2" ry="2"/><rect class="c" x="498" y="66" rx="2" ry="2"/><rect class="c" x="498" y="82" rx="2" ry="2"/><rect class="c" x="498" y="98" rx="2" ry="2"/><rect class="c" x="514" y="2" rx="2" ry="2"/><rect class="c" x="514" y="18" rx="2" ry="2"/><rect class="c" x="514" y="34" rx="2" ry="2"/><rect class="c" x="514" y="50" rx="2" ry="2"/><rect class="c" x="514" y="66" rx="2" ry="2"/><rect class="c" x="514" y="82" rx="2" ry="2"/><rect class="c" x="514" y="98" rx="2" ry="2"/><rect class="c" x="530" y="2" rx="2" ry="2"/><rect class="c cw" x="530" y="18" rx="2" ry="2"/><rect class="c" x="530" y="34" rx="2" ry="2"/><rect class="c" x="530" y="50" rx="2" ry="2"/><rect class="c" x="530" y="66" rx="2" ry="2"/><rect class="c" x="530" y="82" rx="2" ry="2"/><rect class="c" x="530" y="98" rx="2" ry="2"/><rect class="c" x="546" y="2" rx="2" ry="2"/><rect class="c" x="546" y="18" rx="2" ry="2"/><rect class="c" x="546" y="34" rx="2" ry="2"/><rect class="c" x="546" y="50" rx="2" ry="2"/><rect class="c" x="546" y="66" rx="2" ry="2"/><rect class="c" x="546" y="82" rx="2" ry="2"/><rect class="c" x="546" y="98" rx="2" ry="2"/><rect class="c" x="562" y="2" rx="2" ry="2"/><rect class="c" x="562" y="18" rx="2" ry="2"/><rect class="c" x="562" y="34" rx="2" ry="2"/><rect class="c" x="562" y="50" rx="2" ry="2"/><rect class="c" x="562" y="66" rx="2" ry="2"/><rect class="c" x="562" y="82" rx="2" ry="2"/><rect class="c" x="562" y="98" rx="2" ry="2"/><rect class="c" x="578" y="2" rx="2" ry="2"/><rect class="c" x="578" y="18" rx="2" ry="2"/><rect class="c" x="578" y="34" rx="2" ry="2"/><rect class="c" x="578" y="50" rx="2" ry="2"/><rect class="c" x="578" y="66" rx="2" ry="2"/><rect class="c" x="578" y="82" rx="2" ry="2"/><rect class="c" x="578" y="98" rx="2" ry="2"/><rect class="c" x="594" y="2" rx="2" ry="2"/><rect class="c" x="594" y="18" rx="2" ry="2"/><rect class="c" x="594" y="34" rx="2" ry="2"/><rect class="c" x="594" y="50" rx="2" ry="2"/><rect class="c" x="594" y="66" rx="2" ry="2"/><rect class="c" x="594" y="82" rx="2" ry="2"/><rect class="c" x="594" y="98" rx="2" ry="2"/><rect class="c" x="610" y="2" rx="2" ry="2"/><rect class="c" x="610" y="18" rx="2" ry="2"/><rect class="c" x="610" y="34" rx="2" ry="2"/><rect class="c" x="610" y="50" rx="2" ry="2"/><rect class="c" x="610" y="66" rx="2" ry="2"/><rect class="c" x="610" y="82" rx="2" ry="2"/><rect class="c cx" x="610" y="98" rx="2" ry="2"/><rect class="c" x="626" y="2" rx="2" ry="2"/><rect class="c" x="626" y="18" rx="2" ry="2"/><rect class="c" x="626" y="34" rx="2" ry="2"/><rect class="c" x="626" y="50" rx="2" ry="2"/><rect class="c" x="626" y="66" rx="2" ry="2"/><rect class="c cy" x="626" y="82" rx="2" ry="2"/><rect class="c" x="626" y="98" rx="2" ry="2"/><rect class="c" x="642" y="2" rx="2" ry="2"/><rect class="c cz" x="642" y="18" rx="2" ry="2"/><rect class="c" x="642" y="34" rx="2" ry="2"/><rect class="c" x="642" y="50" rx="2" ry="2"/><rect class="c" x="642" y="66" rx="2" ry="2"/><rect class="c" x="642" y="82" rx="2" ry="2"/><rect class="c" x="642" y="98" rx="2" ry="2"/><rect class="c c10" x="658" y="2" rx="2" ry="2"/><rect class="c" x="658" y="18" rx="2" ry="2"/><rect class="c" x="658" y="34" rx="2" ry="2"/><rect class="c" x="658" y="50" rx="2" ry="2"/><rect class="c" x="658" y="66" rx="2" ry="2"/><rect class="c" x="658" y="82" rx="2" ry="2"/><rect class="c c11" x="658" y="98" rx="2" ry="2"/><rect class="c" x="674" y="2" rx="2" ry="2"/><rect class="c" x="674" y="18" rx="2" ry="2"/><rect class="c" x="674" y="34" rx="2" ry="2"/><rect class="c" x="674" y="50" rx="2" ry="2"/><rect class="c" x="674" y="66" rx="2" ry="2"/><rect class="c" x="674" y="82" rx="2" ry="2"/><rect class="c" x="674" y="98" rx="2" ry="2"/><rect class="c c12" x="690" y="2" rx="2" ry="2"/><rect class="c c13" x="690" y="18" rx="2" ry="2"/><rect class="c" x="690" y="34" rx="2" ry="2"/><rect class="c" x="690" y="50" rx="2" ry="2"/><rect class="c" x="690" y="66" rx="2" ry="2"/><rect class="c" x="690" y="82" rx="2" ry="2"/><rect class="c" x="690" y="98" rx="2" ry="2"/><rect class="c" x="706" y="2" rx="2" ry="2"/><rect class="c" x="706" y="18" rx="2" ry="2"/><rect class="c c14" x="706" y="34" rx="2" ry="2"/><rect class="c" x="706" y="50" rx="2" ry="2"/><rect class="c" x="706" y="66" rx="2" ry="2"/><rect class="c" x="706" y="82" rx="2" ry="2"/><rect class="c" x="706" y="98" rx="2" ry="2"/><rect class="c" x="722" y="2" rx="2" ry="2"/><rect class="c" x="722" y="18" rx="2" ry="2"/><rect class="c" x="722" y="34" rx="2" ry="2"/><rect class="c" x="722" y="50" rx="2" ry="2"/><rect class="c" x="722" y="66" rx="2" ry="2"/><rect class="c" x="722" y="82" rx="2" ry="2"/><rect class="c" x="722" y="98" rx="2" ry="2"/><rect class="c" x="738" y="2" rx="2" ry="2"/><rect class="c" x="738" y="18" rx="2" ry="2"/><rect class="c" x="738" y="34" rx="2" ry="2"/><rect class="c" x="738" y="50" rx="2" ry="2"/><rect class="c" x="738" y="66" rx="2" ry="2"/><rect class="c" x="738" y="82" rx="2" ry="2"/><rect class="c" x="738" y="98" rx="2" ry="2"/><rect class="c" x="754" y="2" rx="2" ry="2"/><rect class="c" x="754" y="18" rx="2" ry="2"/><rect class="c" x="754" y="34" rx="2" ry="2"/><rect class="c c15" x="754" y="50" rx="2" ry="2"/><rect class="c c16" x="754" y="66" rx="2" ry="2"/><rect class="c c17" x="754" y="82" rx="2" ry="2"/><rect class="c c18" x="754" y="98" rx="2" ry="2"/><rect class="c c19" x="770" y="2" rx="2" ry="2"/><rect class="c c1a" x="770" y="18" rx="2" ry="2"/><rect class="c c1b" x="770" y="34" rx="2" ry="2"/><rect class="c c1c" x="770" y="50" rx="2" ry="2"/><rect class="c c1d" x="770" y="66" rx="2" ry="2"/><rect class="c c1e" x="770" y="82" rx="2" ry="2"/><rect class="c c1f" x="770" y="98" rx="2" ry="2"/><rect class="c" x="786" y="2" rx="2" ry="2"/><rect class="c c1g" x="786" y="18" rx="2" ry="2"/><rect class="c c1h" x="786" y="34" rx="2" ry="2"/><rect class="c" x="786" y="50" rx="2" ry="2"/><rect class="c c1i" x="786" y="66" rx="2" ry="2"/><rect class="c" x="786" y="82" rx="2" ry="2"/><rect class="c" x="786" y="98" rx="2" ry="2"/><rect class="c" x="802" y="2" rx="2" ry="2"/><rect class="c" x="802" y="18" rx="2" ry="2"/><rect class="c" x="802" y="34" rx="2" ry="2"/><rect class="c" x="802" y="50" rx="2" ry="2"/><rect class="c" x="802" y="66" rx="2" ry="2"/><rect class="c" x="802" y="82" rx="2" ry="2"/><rect class="c" x="802" y="98" rx="2" ry="2"/><rect class="c" x="818" y="2" rx="2" ry="2"/><rect class="c" x="818" y="18" rx="2" ry="2"/><rect class="c" x="818" y="34" rx="2" ry="2"/><rect class="c c1j" x="818" y="50" rx="2" ry="2"/><rect class="c c1k" x="818" y="66" rx="2" ry="2"/><rect class="c" x="818" y="82" rx="2" ry="2"/><rect class="c" x="818" y="98" rx="2" ry="2"/><rect class="c" x="834" y="2" rx="2" ry="2"/><rect class="c" x="834" y="18" rx="2" ry="2"/><rect class="c" x="834" y="34" rx="2" ry="2"/><rect class="c c1l" x="834" y="50" rx="2" ry="2"/><rect class="u u0" height="12" width="687.8" x="0.0" y="144"/><rect class="u u1" height="12" width="88.3" x="687.2" y="144"/><rect class="u u2" height="12" width="29.8" x="774.9" y="144"/><rect class="u u3" height="12" width="44.5" x="804.1" y="144"/><rect class="s s0" x="0.8" y="0.8" width="14.4" height="14.4" rx="4.5" ry="4.5"/><rect class="s s1" x="1.8" y="1.8" width="12.3" height="12.3" rx="4.1" ry="4.1"/><rect class="s s2" x="2.6" y="2.6" width="10.8" height="10.8" rx="3.6" ry="3.6"/><rect class="s s3" x="3.0" y="3.0" width="9.9" height="9.9" rx="3.3" ry="3.3"/></svg>